<svg version="1.1" xmlns="http://www.w3.org/2000/svg" viewBox="0 0 828 429" width="828" height="429">
  <!-- svg-source:excalidraw -->
  
  <defs>
    <style class="style-fonts">
      @font-face {
        font-family: "Virgil";
        src: url("https://excalidraw.com/Virgil.woff2");
      }
      @font-face {
        font-family: "Cascadia";
        src: url("https://excalidraw.com/Cascadia.woff2");
      }
      @font-face {
        font-family: "Assistant";
        src: url("https://excalidraw.com/Assistant-Regular.woff2");
      }
    </style>
    
  </defs>
  <rect x="0" y="0" width="828" height="429" fill="#ffffff"></rect><g stroke-linecap="round" transform="translate(338 203) rotate(0 77 81)"><path d="M32 0 C53.11 1.3, 75.56 -1.87, 122 0 M32 0 C53.57 -0.25, 76.66 -1.17, 122 0 M122 0 C142.18 0.85, 153.01 9.51, 154 32 M122 0 C143.5 1.56, 155.69 11.86, 154 32 M154 32 C152.35 55.54, 155.62 80, 154 130 M154 32 C152.44 54.11, 152.74 76.84, 154 130 M154 130 C152.61 152.3, 143.04 160.33, 122 162 M154 130 C155.58 152.81, 143 160.2, 122 162 M122 162 C98.77 162.61, 71.56 160.15, 32 162 M122 162 C98.88 161.31, 77.39 161.27, 32 162 M32 162 C12.47 160.63, 0.88 152.34, 0 130 M32 162 C12.39 163.09, 0.65 149.12, 0 130 M0 130 C1.06 95.15, -0.46 58.24, 0 32 M0 130 C-0.76 107.66, 0.38 85.89, 0 32 M0 32 C1.29 11.6, 11.76 0.34, 32 0 M0 32 C-2.19 10.52, 10.62 -0.85, 32 0" stroke="#1e1e1e" stroke-width="2" fill="none"></path></g><g transform="translate(383.6800308227539 246.5) rotate(0 31.319969177246094 37.5)"><text x="31.319969177246094" y="17.52" font-family="Virgil, Segoe UI Emoji" font-size="20px" fill="#1e1e1e" text-anchor="middle" style="white-space: pre;" direction="ltr" dominant-baseline="alphabetic">Kafka</text><text x="31.319969177246094" y="42.519999999999996" font-family="Virgil, Segoe UI Emoji" font-size="20px" fill="#1e1e1e" text-anchor="middle" style="white-space: pre;" direction="ltr" dominant-baseline="alphabetic">or</text><text x="31.319969177246094" y="67.52" font-family="Virgil, Segoe UI Emoji" font-size="20px" fill="#1e1e1e" text-anchor="middle" style="white-space: pre;" direction="ltr" dominant-baseline="alphabetic">Pulsar</text></g><g stroke-linecap="round"><g transform="translate(156 130) rotate(0 92.07753841534259 45.826847001165135)"><path d="M-0.99 -0.6 C29.58 14.6, 152.27 75.62, 182.97 90.82 M0.7 1.7 C31.66 17.12, 154.31 77.27, 185.14 92.26" stroke="#1e1e1e" stroke-width="2" fill="none"></path></g><g transform="translate(156 130) rotate(0 92.07753841534259 45.826847001165135)"><path d="M160.28 89.62 C165.89 88.81, 173.22 89.9, 185.14 92.26 M160.28 89.62 C166.76 90.73, 173.86 91.98, 185.14 92.26" stroke="#1e1e1e" stroke-width="2" fill="none"></path></g><g transform="translate(156 130) rotate(0 92.07753841534259 45.826847001165135)"><path d="M167.79 74.26 C171.35 77.48, 176.67 82.66, 185.14 92.26 M167.79 74.26 C172.37 79.39, 177.51 84.67, 185.14 92.26" stroke="#1e1e1e" stroke-width="2" fill="none"></path></g></g><mask></mask><g stroke-linecap="round"><g transform="translate(154 263) rotate(0 92.90312235765163 2.775383107885716)"><path d="M-0.43 0.72 C30.59 1.57, 155.04 3.6, 186.23 4.32 M1.55 0.05 C32.41 1.12, 154.6 4.45, 185.41 5.5" stroke="#1e1e1e" stroke-width="2" fill="none"></path></g><g transform="translate(154 263) rotate(0 92.90312235765163 2.775383107885716)"><path d="M161.67 13.33 C170.33 11.36, 175.41 9.79, 185.41 5.5 M161.67 13.33 C168.15 11.4, 176.16 8.62, 185.41 5.5" stroke="#1e1e1e" stroke-width="2" fill="none"></path></g><g transform="translate(154 263) rotate(0 92.90312235765163 2.775383107885716)"><path d="M162.18 -3.76 C170.57 -0.4, 175.49 3.37, 185.41 5.5 M162.18 -3.76 C168.52 -0.54, 176.37 1.84, 185.41 5.5" stroke="#1e1e1e" stroke-width="2" fill="none"></path></g></g><mask></mask><g stroke-linecap="round"><g transform="translate(157 372) rotate(0 89.74870877675716 -27.378637157008058)"><path d="M-0.96 0.05 C28.94 -9.1, 150.04 -45.97, 180.46 -54.81 M0.74 -0.96 C30.35 -9.99, 149.17 -44.72, 179.22 -53.7" stroke="#1e1e1e" stroke-width="2" fill="none"></path></g><g transform="translate(157 372) rotate(0 89.74870877675716 -27.378637157008058)"><path d="M159.11 -38.85 C166.96 -45.33, 173.28 -49.23, 179.22 -53.7 M159.11 -38.85 C166.11 -44.73, 174.2 -51.13, 179.22 -53.7" stroke="#1e1e1e" stroke-width="2" fill="none"></path></g><g transform="translate(157 372) rotate(0 89.74870877675716 -27.378637157008058)"><path d="M154.27 -55.25 C164 -55.36, 172.19 -52.93, 179.22 -53.7 M154.27 -55.25 C163.18 -54.86, 173.12 -55, 179.22 -53.7" stroke="#1e1e1e" stroke-width="2" fill="none"></path></g></g><mask></mask><g transform="translate(37 252) rotate(0 32.429962158203125 12.5)"><text x="0" y="17.52" font-family="Virgil, Segoe UI Emoji" font-size="20px" fill="#1e1e1e" text-anchor="start" style="white-space: pre;" direction="ltr" dominant-baseline="alphabetic">Probes</text></g><g stroke-linecap="round" transform="translate(10 105) rotate(0 64 157)"><path d="M81.25 39.5 C93.68 68.67, 103.29 95.23, 111.75 118.5 M81.25 39.5 C88.28 57.18, 94.99 73.2, 111.75 118.5 M111.75 118.5 C127.6 158.93, 128.86 158.78, 111.75 197.5 M111.75 118.5 C128.66 156.5, 128.22 156.6, 111.75 197.5 M111.75 197.5 C105.76 211.27, 98.37 229.64, 81.25 274.5 M111.75 197.5 C101.47 222.05, 92.52 246.02, 81.25 274.5 M81.25 274.5 C65.02 314.05, 65.38 315.75, 48.75 274.5 M81.25 274.5 C66.09 312.06, 63.55 311.85, 48.75 274.5 M48.75 274.5 C38.21 247.21, 23.32 217.99, 16.25 197.5 M48.75 274.5 C37.53 248.89, 27.47 225.48, 16.25 197.5 M16.25 197.5 C-1.84 159.19, 0.29 156.71, 16.25 118.5 M16.25 197.5 C1.52 158.27, -0.24 157.43, 16.25 118.5 M16.25 118.5 C25.39 89.82, 38.69 65.61, 48.75 39.5 M16.25 118.5 C24.7 100.17, 31.15 79.59, 48.75 39.5 M48.75 39.5 C63.82 0.14, 65.29 -0.36, 81.25 39.5 M48.75 39.5 C64.56 -1.93, 65.9 -1.91, 81.25 39.5" stroke="#1e1e1e" stroke-width="2" fill="none"></path></g><g stroke-linecap="round" transform="translate(337 10) rotate(0 77 81)"><path d="M32 0 C57.86 -1.27, 85.68 -1.06, 122 0 M32 0 C53.56 1.23, 74.97 -0.07, 122 0 M122 0 C143.71 1.93, 155.35 8.75, 154 32 M122 0 C142.96 2.17, 153.44 11.36, 154 32 M154 32 C153.9 62.08, 154.44 88.72, 154 130 M154 32 C154.75 64.5, 154.89 96.65, 154 130 M154 130 C154.25 150.94, 142.88 160.34, 122 162 M154 130 C155.46 153.04, 142.28 163.92, 122 162 M122 162 C89.36 160.95, 55.09 160.87, 32 162 M122 162 C99.17 162.18, 78.25 162.77, 32 162 M32 162 C10 162.84, 0.64 151.52, 0 130 M32 162 C12.64 160.58, 1.89 153.14, 0 130 M0 130 C-1.71 99.06, 1.05 71.79, 0 32 M0 130 C0.42 104.72, -1.14 80.98, 0 32 M0 32 C1.85 11.69, 8.89 -0.21, 32 0 M0 32 C1.42 8.71, 12.26 -1.12, 32 0" stroke="#1e1e1e" stroke-width="2" fill="none"></path></g><g transform="translate(393.90001678466797 78.5) rotate(0 20.09998321533203 12.5)"><text x="20.09998321533203" y="17.52" font-family="Virgil, Segoe UI Emoji" font-size="20px" fill="#1e1e1e" text-anchor="middle" style="white-space: pre;" direction="ltr" dominant-baseline="alphabetic">Flink</text></g><g stroke-linecap="round"><g transform="translate(384 201) rotate(0 0.48193023964324766 -14.234158058653122)"><path d="M-0.51 -0.01 C-0.52 -4.62, 0.34 -22.98, 0.5 -27.66 M0.22 -0.5 C0.34 -5.25, 1.26 -23.94, 1.48 -28.45" stroke="#1e1e1e" stroke-width="2" fill="none"></path></g><g transform="translate(384 201) rotate(0 0.48193023964324766 -14.234158058653122)"><path d="M5.63 -15.07 C3.99 -20.99, 2.8 -26.3, 1.48 -28.45 M5.63 -15.07 C4.5 -18.42, 3.26 -22.24, 1.48 -28.45" stroke="#1e1e1e" stroke-width="2" fill="none"></path></g><g transform="translate(384 201) rotate(0 0.48193023964324766 -14.234158058653122)"><path d="M-3.94 -15.54 C-1.82 -21.23, 0.76 -26.35, 1.48 -28.45 M-3.94 -15.54 C-2.43 -18.8, -1.03 -22.49, 1.48 -28.45" stroke="#1e1e1e" stroke-width="2" fill="none"></path></g></g><mask></mask><g stroke-linecap="round"><g transform="translate(444 170) rotate(0 -0.8538112493581025 13.994682234486078)"><path d="M-0.03 -0.24 C-0.29 4.37, -1.15 23.02, -1.5 27.69 M-0.71 0.82 C-1.01 5.49, -1.37 23.65, -1.68 28.23" stroke="#1e1e1e" stroke-width="2" fill="none"></path></g><g transform="translate(444 170) rotate(0 -0.8538112493581025 13.994682234486078)"><path d="M-5.94 14.86 C-4.89 19.74, -3.62 23.17, -1.68 28.23 M-5.94 14.86 C-5.04 18.44, -3.56 21.9, -1.68 28.23" stroke="#1e1e1e" stroke-width="2" fill="none"></path></g><g transform="translate(444 170) rotate(0 -0.8538112493581025 13.994682234486078)"><path d="M3.66 15.25 C1.66 20, -0.12 23.31, -1.68 28.23 M3.66 15.25 C2.02 18.73, 0.98 22.08, -1.68 28.23" stroke="#1e1e1e" stroke-width="2" fill="none"></path></g></g><mask></mask><g stroke-linecap="round"><g transform="translate(495 282) rotate(0 79.85279646576379 -3.0282098609954176)"><path d="M-1.02 -0.51 C25.33 -1.54, 131.85 -4.97, 158.36 -5.54 M0.64 -1.83 C27.37 -2.76, 134.11 -3.64, 160.73 -4.29" stroke="#1e1e1e" stroke-width="2" fill="none"></path></g><g transform="translate(495 282) rotate(0 79.85279646576379 -3.0282098609954176)"><path d="M137.37 4.63 C143.92 0.91, 151.32 -2.51, 160.73 -4.29 M137.37 4.63 C145.76 0.58, 156.15 -1.72, 160.73 -4.29" stroke="#1e1e1e" stroke-width="2" fill="none"></path></g><g transform="translate(495 282) rotate(0 79.85279646576379 -3.0282098609954176)"><path d="M137.11 -12.47 C143.82 -10.74, 151.31 -8.71, 160.73 -4.29 M137.11 -12.47 C145.67 -9.87, 156.17 -5.52, 160.73 -4.29" stroke="#1e1e1e" stroke-width="2" fill="none"></path></g></g><mask></mask><g stroke-linecap="round" transform="translate(657 210) rotate(0 80.5 66.5)"><path d="M118.65 8.81 C128.85 12.24, 139.26 19.89, 146.19 27.55 C153.13 35.2, 158.2 45.16, 160.25 54.75 C162.31 64.34, 161.81 75.9, 158.5 85.11 C155.19 94.32, 148.31 102.88, 140.38 110.01 C132.45 117.14, 121.68 124.15, 110.92 127.89 C100.15 131.63, 87.27 133.01, 75.8 132.44 C64.32 131.87, 52.27 128.99, 42.06 124.45 C31.86 119.92, 21.51 113.07, 14.56 105.25 C7.61 97.43, 2.19 87.1, 0.35 77.51 C-1.48 67.92, 0.18 56.93, 3.53 47.73 C6.88 38.52, 12.77 29.32, 20.45 22.3 C28.13 15.27, 38.99 9.28, 49.61 5.56 C60.22 1.84, 72.04 -0.81, 84.15 -0.02 C96.26 0.76, 115.6 8.07, 122.27 10.26 C128.95 12.45, 124.71 12.34, 124.19 13.11 M60.2 2.99 C70.52 -0.05, 84.15 1.18, 95.84 2.81 C107.54 4.44, 121.01 7.3, 130.39 12.78 C139.77 18.27, 147.01 27.01, 152.12 35.73 C157.23 44.46, 160.81 55.3, 161.05 65.12 C161.29 74.94, 158.65 85.65, 153.57 94.65 C148.5 103.64, 139.68 112.84, 130.59 119.11 C121.5 125.37, 110.17 130.37, 99.01 132.24 C87.86 134.12, 75.03 132.64, 63.66 130.38 C52.29 128.12, 39.99 124.43, 30.81 118.67 C21.62 112.9, 13.46 104.2, 8.55 95.81 C3.63 87.42, 1.45 78.06, 1.32 68.31 C1.18 58.56, 3.28 46.17, 7.75 37.29 C12.22 28.42, 19.34 20.83, 28.14 15.08 C36.94 9.33, 54.91 4.82, 60.54 2.8 C66.16 0.77, 61.67 2.19, 61.91 2.91" stroke="#1e1e1e" stroke-width="2" fill="none"></path></g><g transform="translate(688.1379398200493 263.9773990510946) rotate(0 49.439964294433594 12.5)"><text x="49.439964294433594" y="17.52" font-family="Virgil, Segoe UI Emoji" font-size="20px" fill="#1e1e1e" text-anchor="middle" style="white-space: pre;" direction="ltr" dominant-baseline="alphabetic">Database</text></g><g transform="translate(524 245) rotate(0 58.22996520996094 12.5)"><text x="0" y="17.52" font-family="Virgil, Segoe UI Emoji" font-size="20px" fill="#1e1e1e" text-anchor="start" style="white-space: pre;" direction="ltr" dominant-baseline="alphabetic">KPI or xDR</text></g></svg>